<svg id="SvgjsSvg1045" width="360" height="360" xmlns="http://www.w3.org/2000/svg" version="1.1" xmlns:xlink="http://www.w3.org/1999/xlink" xmlns:svgjs="http://svgjs.com/svgjs"><path id="SvgjsPath1085" d="M 180,0 C 5,0 0,5 0,180 0,355 5,360 180,360 355,360 360,355 360,180 360,5 355,0 180,0 Z" transform="matrix(0.7915999889373779,0,0,0.7915999889373779,37.512001037597656,37.512001037597656)" fill="#846400"></path><defs id="SvgjsDefs1046"></defs><g id="SvgjsG1047" transform="matrix(0.4652000069618225,0,0,0.4652000069618225,96.26400756835938,96.26399993896484)"><svg xmlns="http://www.w3.org/2000/svg" data-name="Layer 1" viewBox="0 0 700 550" width="360" height="360"><path fill="#c1c9cd" d="M199.42537,239.40818c.01166-.13648.01406-.26517.03352-.3924L199.812,236.09l1.422-11.917a4.23607,4.23607,0,1,1,8.41265,1.00229l-1.58344,13.30385-.18,1.40243Z" class="colorcec3c0 svgShape"></path><polygon fill="#c1c9cd" points="166.982 422.562 178.086 413.207 203.046 268.284 198.747 263.182 194.747 266.552 161.328 409.087 166.982 422.562" class="colorcec3c0 svgShape"></polygon><path fill="#c1c9cd" d="M308.74228,31.99128s-19.8328,1.16236-21.57635,10.75185,0,13.94834,0,13.94834A42.14672,42.14672,0,0,1,277.867,83.42579c-10.17067,12.49539-2.90591,31.67437-2.90591,31.67437s24.4096,34.28967,44.16976,25.86255,31.09318-27.02492,31.67436-31.38377-9.00831-24.119-11.333-28.47787-7.26476-10.60655-8.13653-15.61924-2.32473-16.6363-2.32473-16.6363S324.21622,34.89718,308.74228,31.99128Z" class="colorcec3c0 svgShape"></path><path fill="#e2e6e8" d="M294.762,83.88221s.83107,28.312-12.2455,29.18381c0,0-15.98248.341-24.119,29.22955s-17.43543,46.324-17.43543,46.324l-24.58054,53.82082s-8.61121-4.51965-16.74774-3.06669-3.91354,13.36385-10.65381,20.03458c-1.03271,1.02205-.58118,2.9059,5.23063,9.0083s16.67207,3.55195,21.2481,2.67918c13.14666-2.50742,27.81985-30.74288,36.96833-44.22754,6.29536-9.27921,22.53411-43.76987,22.53411-43.76987l77.87825-6.68358s-4.06826-33.41791,14.82012-36.6144c0,0,56.37455-11.21347,58.98986-14.97828s24.84549-55.71779,24.84549-55.71779,4.35886,3.13378,9.1536-5.58393,12.64068-16.99955-1.30766-22.52077c0,0-8.13653-2.47-10.316-1.01706,0,0-4.64945-3.0512-6.2477.58118s-4.64944,15.54659-3.77767,20.92251a12.15852,12.15852,0,0,1-1.30766,5.23063c-1.30766,2.32472-24.77284,38.64853-26.73432,39.95619s-67.99817,7.26476-72.357,5.52122-17.34115-2.562-17.0977-26.56239Z" class="colore5e5e5 svgShape"></path><path fill="#c1c9cd" d="M311.639,100.15836a15.23537,15.23537,0,0,0,10.66982-4.72271,47.94208,47.94208,0,0,1-.80611-9.80378L294.762,83.88219s.01478.54672.00813,1.46782C297.91531,94.14076,304.286,100.15836,311.639,100.15836Z" class="colorcec3c0 svgShape"></path><path fill="#ffffff" d="M194.35765,260.84733s-2.80243-4.76354,1.05762-6.94714c0,0-2.12218-4.12527,1.02894-7.0656,0,0-1.08947-5.35181,3.18956-7.46091,0,0-3.0763-2.77091-3.72437-1.57585a114.06531,114.06531,0,0,0-5.683,11.66349c-1.87045,4.99577-4.86224,10.93577,1.49163,16.22179C191.718,265.68311,191.96262,261.72541,194.35765,260.84733Z" class="colorfff svgShape"></path><path fill="#c1c9cd" d="M443.4311,58.83456s-.76295-5.66651,2.39735-7.519c0,0-.65387-5.44858,2.83307-6.86526,0,0-.58116-2.83321.3633-4.46783,0,0-4.64956-3.05115-6.24759.58123-1.59833,3.63238-4.64955,15.54655-3.77782,20.92248,0,0-.00059.41783-.07154,1.06107a23.12378,23.12378,0,0,0,12.567,6.557S436.5657,62.75752,443.4311,58.83456Z" class="colorcec3c0 svgShape"></path><path fill="#c1c9cd" d="M451.70413 118.29381c-6.7776-17.62449-8.85156-34.63118-6.16156-50.54649l4.77459.8064c-2.54219 15.048-.55455 31.198 5.90853 48.00194zM460.56279 41.78029l-4.0817-2.60723A57.46382 57.46382 0 01465.61644 27.855l3.2138 3.62292-1.6069-1.81146 1.61045 1.80909A53.83936 53.83936 0 00460.56279 41.78029zM367.36891 168.42351h54.34042a0 0 0 010 0v0a17.726 17.726 0 01-17.726 17.726H385.09491a17.726 17.726 0 01-17.726-17.726v0a0 0 0 010 0z" class="colorcec3c0 svgShape"></path><path fill="#c1c9cd" d="M514.6923,116.7045a3.59312,3.59312,0,0,0,.44134-1.70135,3.63218,3.63218,0,0,0-3.63238-3.63238H394.39363a3.61044,3.61044,0,0,0-3.26495,5.19738l-22.51053,54.56427,4.47663,1.84694,21.313-51.65975,21.57908,51.6698,4.46954-1.867-21.9211-52.48684H507.23909l-21.65875,52.49689,4.47663,1.84694,21.31422-51.65975,21.57909,51.6698,4.46953-1.867Z" class="colorcec3c0 svgShape"></path><path fill="#c1c9cd" d="M484.33157 168.42351H538.672a0 0 0 010 0v0a17.726 17.726 0 01-17.726 17.726H502.05757a17.726 17.726 0 01-17.726-17.726v0A0 0 0 01484.33157 168.42351zM274.06992 116.45285s7.345-9.4292 14.14352-6.11746a27.59974 27.59974 0 0021.83649 20.05446c18.30714 3.526 44.35457 17.15256 45.82405 19.275 1.46962 2.12233-7.24816 52.68512-7.03026 59.65917s7.19736 40.9733 7.19736 40.9733c5.852 63.91843 11.704 136.34524 17.55594 201.19106.60376 6.69025 1.28436 13.80473-4.97887 16.23287-9.52584 3.693-30.13815 7.72646-56.00151 7.72646-25.06237 0-55.49309 1.97938-65.43126-24.8299-.84526-2.28019-.14391 1.3571.051-1.06689q5.56088-69.163 11.12162-138.32635a633.72273 633.72273 0 0115.08813-96.51553 37.58553 37.58553 0 001.29706-7.34649c-.2179-5.44851.87172-14.52949.2179-24.2643s-6.97406-5.59381-.65383-32.18279S274.06992 116.45285 274.06992 116.45285z" class="colorcec3c0 svgShape"></path><ellipse cx="308.742" cy="65.482" fill="#e2e6e8" rx="18.961" ry="27.243" class="colore5e5e5 svgShape"></ellipse><path fill="#3a4347" d="M285.66216,68.15078s-3.208-8.36155,1.25465-12.3078c4.26494-3.77139,18.9187-17.56452,42.78365-2.31266a6.86032,6.86032,0,0,1,3.19067,6.28785c-.21044,2.74538-.64955,5.86955-1.55544,5.66366-1.59825-.36324-11.333-7.80238-17.87132-8.15107S298.39731,55.63638,285.66216,68.15078Z" class="color433f43 svgShape"></path><path fill="#c1c9cd" d="M304.33227 75.1733s3.90777-5.0801 8.79248 0zM304.33227 75.1733s4.68932 6.25243 8.79248 0zM309.25158 62.27766s-3.31957 5.764 0 5.86165a5.34725 5.34725 0 001.74684-.23831" class="colorcec3c0 svgShape"></path><line x1="169.442" x2="196.708" y1="410.289" y2="274.244" fill="none" stroke="#f8f9f9" stroke-linecap="round" stroke-miterlimit="10" stroke-width="2.422" class="colorStrokefaf7f7 svgStroke"></line><line x1="226.549" x2="172.379" y1="279.805" y2="269.711" fill="none" stroke="#e2e6e8" stroke-linecap="round" stroke-miterlimit="10" stroke-width="9.686" class="colorStrokee5e5e5 svgStroke"></line><path fill="#c1c9cd" d="M199.42537,239.40818c.01166-.13648.01406-.26517.03352-.3924L199.812,236.09l1.422-11.917a4.23607,4.23607,0,1,1,8.41265,1.00229l-1.58344,13.30385-.18,1.40243Z" class="colorcec3c0 svgShape"></path><polygon fill="#c1c9cd" points="166.982 422.562 178.086 413.207 203.046 268.284 198.747 263.182 194.747 266.552 161.328 409.087 166.982 422.562" class="colorcec3c0 svgShape"></polygon><path fill="#c1c9cd" d="M308.74228,31.99128s-19.8328,1.16236-21.57635,10.75185,0,13.94834,0,13.94834A42.14672,42.14672,0,0,1,277.867,83.42579c-10.17067,12.49539-2.90591,31.67437-2.90591,31.67437s24.4096,34.28967,44.16976,25.86255,31.09318-27.02492,31.67436-31.38377-9.00831-24.119-11.333-28.47787-7.26476-10.60655-8.13653-15.61924-2.32473-16.6363-2.32473-16.6363S324.21622,34.89718,308.74228,31.99128Z" class="colorcec3c0 svgShape"></path><path fill="#e2e6e8" d="M294.762,83.88221s.83107,28.312-12.2455,29.18381c0,0-15.98248.341-24.119,29.22955s-17.43543,46.324-17.43543,46.324l-24.58054,53.82082s-8.61121-4.51965-16.74774-3.06669-3.91354,13.36385-10.65381,20.03458c-1.03271,1.02205-.58118,2.9059,5.23063,9.0083s16.67207,3.55195,21.2481,2.67918c13.14666-2.50742,27.81985-30.74288,36.96833-44.22754,6.29536-9.27921,22.53411-43.76987,22.53411-43.76987l77.87825-6.68358s-4.06826-33.41791,14.82012-36.6144c0,0,56.37455-11.21347,58.98986-14.97828s24.84549-55.71779,24.84549-55.71779,4.35886,3.13378,9.1536-5.58393,12.64068-16.99955-1.30766-22.52077c0,0-8.13653-2.47-10.316-1.01706,0,0-4.64945-3.0512-6.2477.58118s-4.64944,15.54659-3.77767,20.92251a12.15852,12.15852,0,0,1-1.30766,5.23063c-1.30766,2.32472-24.77284,38.64853-26.73432,39.95619s-67.99817,7.26476-72.357,5.52122-17.34115-2.562-17.0977-26.56239Z" class="colore5e5e5 svgShape"></path><path fill="#c1c9cd" d="M311.639,100.15836a15.23537,15.23537,0,0,0,10.66982-4.72271,47.94208,47.94208,0,0,1-.80611-9.80378L294.762,83.88219s.01478.54672.00813,1.46782C297.91531,94.14076,304.286,100.15836,311.639,100.15836Z" class="colorcec3c0 svgShape"></path><path fill="#ffffff" d="M194.35765,260.84733s-2.80243-4.76354,1.05762-6.94714c0,0-2.12218-4.12527,1.02894-7.0656,0,0-1.08947-5.35181,3.18956-7.46091,0,0-3.0763-2.77091-3.72437-1.57585a114.06531,114.06531,0,0,0-5.683,11.66349c-1.87045,4.99577-4.86224,10.93577,1.49163,16.22179C191.718,265.68311,191.96262,261.72541,194.35765,260.84733Z" class="colorfff svgShape"></path><path fill="#c1c9cd" d="M443.4311,58.83456s-.76295-5.66651,2.39735-7.519c0,0-.65387-5.44858,2.83307-6.86526,0,0-.58116-2.83321.3633-4.46783,0,0-4.64956-3.05115-6.24759.58123-1.59833,3.63238-4.64955,15.54655-3.77782,20.92248,0,0-.00059.41783-.07154,1.06107a23.12378,23.12378,0,0,0,12.567,6.557S436.5657,62.75752,443.4311,58.83456Z" class="colorcec3c0 svgShape"></path><path fill="#c1c9cd" d="M451.70413 118.29381c-6.7776-17.62449-8.85156-34.63118-6.16156-50.54649l4.77459.8064c-2.54219 15.048-.55455 31.198 5.90853 48.00194zM460.56279 41.78029l-4.0817-2.60723A57.46382 57.46382 0 01465.61644 27.855l3.2138 3.62292-1.6069-1.81146 1.61045 1.80909A53.83936 53.83936 0 00460.56279 41.78029zM367.36891 168.42351h54.34042a0 0 0 010 0v0a17.726 17.726 0 01-17.726 17.726H385.09491a17.726 17.726 0 01-17.726-17.726v0a0 0 0 010 0z" class="colorcec3c0 svgShape"></path><path fill="#c1c9cd" d="M514.6923,116.7045a3.59312,3.59312,0,0,0,.44134-1.70135,3.63218,3.63218,0,0,0-3.63238-3.63238H394.39363a3.61044,3.61044,0,0,0-3.26495,5.19738l-22.51053,54.56427,4.47663,1.84694,21.313-51.65975,21.57908,51.6698,4.46954-1.867-21.9211-52.48684H507.23909l-21.65875,52.49689,4.47663,1.84694,21.31422-51.65975,21.57909,51.6698,4.46953-1.867Z" class="colorcec3c0 svgShape"></path><path fill="#c1c9cd" d="M484.33157 168.42351H538.672a0 0 0 010 0v0a17.726 17.726 0 01-17.726 17.726H502.05757a17.726 17.726 0 01-17.726-17.726v0A0 0 0 01484.33157 168.42351zM274.06992 116.45285s7.345-9.4292 14.14352-6.11746a27.59974 27.59974 0 0021.83649 20.05446c18.30714 3.526 44.35457 17.15256 45.82405 19.275 1.46962 2.12233-7.24816 52.68512-7.03026 59.65917s7.19736 40.9733 7.19736 40.9733c5.852 63.91843 11.704 136.34524 17.55594 201.19106.60376 6.69025 1.28436 13.80473-4.97887 16.23287-9.52584 3.693-30.13815 7.72646-56.00151 7.72646-25.06237 0-55.49309 1.97938-65.43126-24.8299-.84526-2.28019-.14391 1.3571.051-1.06689q5.56088-69.163 11.12162-138.32635a633.72273 633.72273 0 0115.08813-96.51553 37.58553 37.58553 0 001.29706-7.34649c-.2179-5.44851.87172-14.52949.2179-24.2643s-6.97406-5.59381-.65383-32.18279S274.06992 116.45285 274.06992 116.45285z" class="colorcec3c0 svgShape"></path><ellipse cx="308.742" cy="65.482" fill="#e2e6e8" rx="18.961" ry="27.243" class="colore5e5e5 svgShape"></ellipse><path fill="#3a4347" d="M285.66216,68.15078s-3.208-8.36155,1.25465-12.3078c4.26494-3.77139,18.9187-17.56452,42.78365-2.31266a6.86032,6.86032,0,0,1,3.19067,6.28785c-.21044,2.74538-.64955,5.86955-1.55544,5.66366-1.59825-.36324-11.333-7.80238-17.87132-8.15107S298.39731,55.63638,285.66216,68.15078Z" class="color433f43 svgShape"></path><path fill="#c1c9cd" d="M304.33227 75.1733s3.90777-5.0801 8.79248 0zM304.33227 75.1733s4.68932 6.25243 8.79248 0zM309.25158 62.27766s-3.31957 5.764 0 5.86165a5.34725 5.34725 0 001.74684-.23831" class="colorcec3c0 svgShape"></path><line x1="169.442" x2="196.708" y1="410.289" y2="274.244" fill="none" stroke="#f8f9f9" stroke-linecap="round" stroke-miterlimit="10" stroke-width="2.422" class="colorStrokefaf7f7 svgStroke"></line><line x1="226.549" x2="172.379" y1="279.805" y2="269.711" fill="none" stroke="#e2e6e8" stroke-linecap="round" stroke-miterlimit="10" stroke-width="9.686" class="colorStrokee5e5e5 svgStroke"></line><path fill="#9da9af" d="M247.08378 450.35734c-.54273-1.35351-.2395.41895 0 0zM247.23637 449.551a2.294 2.294 0 01-.15259.80639c.032.07984.06348.15772.10156.2605 9.93823 26.80933 40.3689 24.82984 65.4314 24.82984 25.86328 0 46.47558-4.03345 56.00146-7.72632 6.26319-2.42822 5.58252-9.54273 4.97876-16.23291-.46753-5.18237-.9353-10.42774-1.40307-15.69873H248.34281Q247.78948 442.67046 247.23637 449.551z" class="coloraaa3a2 svgShape"></path><rect width="176.059" height="39.691" x="221.935" y="442.764" fill="#c1c9cd" class="colorcec3c0 svgShape"></rect><rect width="222.076" height="39.691" x="198.926" y="482.454" fill="#c1c9cd" class="colorcec3c0 svgShape"></rect><rect width="176.059" height="6.974" x="221.935" y="475.48" fill="#9da9af" class="coloraaa3a2 svgShape"></rect><path fill="#9da9af" d="M310.99842 234.31088s-2.41 62.65166-2.463 78.60912c-.09754 29.34682 12.57181 64.08 25.1446 109.64217M296.99913 279.08014S285.30707 344.4103 285.40031 370.16c.0167 4.61153 3.562 65.62972 3.562 65.62972M274.96113 115.10016s7.56576-8.08939 13.25231-4.76477M321.50272 85.63184a38.884 38.884 0 01.57618 4.897c.10278 1.62768.20214 3.22119.23 4.90674a12.23049 12.23049 0 01-1.227-4.83838A15.30913 15.30913 0 01321.50272 85.63184zM274.0331 178.567s10.2069 7.58257 26.2869 2.113M313.01966 179.7975s10.8675 6.601 26.36951-.33945" class="coloraaa3a2 svgShape"></path></svg></g></svg>